<?xml version="1.0" standalone="no"?>
<!DOCTYPE svg PUBLIC "-//W3C//DTD SVG 20010904//EN"
 "http://www.w3.org/TR/2001/REC-SVG-20010904/DTD/svg10.dtd">
<svg version="1.0" xmlns="http://www.w3.org/2000/svg"
 width="700.000000pt" height="700.000000pt" viewBox="0 0 700.000000 700.000000"
 preserveAspectRatio="xMidYMid meet">
<metadata>
Created by potrace 1.14, written by Peter Selinger 2001-2017
</metadata>
<g transform="translate(0.000000,700.000000) scale(0.100000,-0.100000)"
fill="#000000" stroke="none">
<path d="M1340 4583 l0 -828 145 -120 c80 -65 145 -123 145 -127 0 -4 -65 -62
-145 -129 l-145 -121 0 -823 c0 -453 3 -826 8 -828 4 -2 422 -1 928 2 l922 6
-454 404 c-250 223 -454 408 -454 412 0 4 57 58 128 120 70 62 139 123 153
136 l26 24 661 -551 660 -550 862 2 862 3 -1058 935 c-581 514 -1064 940
-1072 946 -11 8 205 204 1054 954 588 519 1073 947 1079 952 5 4 -380 8 -856
8 l-865 0 -662 -551 c-586 -487 -665 -549 -679 -537 -78 62 -290 255 -290 263
0 6 194 183 431 394 237 211 442 394 456 407 l25 24 -933 0 -932 0 0 -827z"/>
</g>
</svg>
